<svg xmlns="http://www.w3.org/2000/svg" viewBox="0 0 92.75 134.75"><defs><style>.a{fill:#fff;}.b{fill:#1b67b2;}.c{fill:none;stroke:#fff;stroke-width:2px;}</style></defs><title>hamafes_logo2018</title><path class="a" d="M28.6611,105.9434c-.3408-.5176-.665-1.0469-.9892-1.5772a24.0664,24.0664,0,0,0-2.0889-3.06,6.3956,6.3956,0,0,1-1.3906-4.9482c.0068-.2275.0244-.4668.0429-.7119.0557-.7305.0831-1.2979-.1162-1.4131L24.043,94.19l-.07-.0528a57.0492,57.0492,0,0,1-10.5312-9.97c-.1328.05-.2666.1006-.4.1523a10.2555,10.2555,0,0,1-3.6025.875l-.08.001-.0791-.0078a3.867,3.867,0,0,1-3.377-3.8984l-.3017-2.8Q4.9033,72.019,4.1953,65.55l-.0078-.1055c-.0059-.15-.0195-.3076-.0332-.4668a3.9879,3.9879,0,0,1,.9775-3.5351L5.2,61.3789l.0752-.0537a3.0318,3.0318,0,0,1,1.7881-.57,4.62,4.62,0,0,1,2.4336.7939q4.4545,2.7129,8.9541,5.4248L23.7676,70.19a3.8323,3.8323,0,0,1,1.9238,4.6914,7.2543,7.2543,0,0,1-1.7148,2.3418,19.0874,19.0874,0,0,0,2.2714,1.2724c.0235-.0635.0469-.126.07-.19a7.6335,7.6335,0,0,1,2.2841-3.6973c.3623-.2871.7383-.5635,1.1133-.84a17.2708,17.2708,0,0,0,1.8565-1.4942,6.7376,6.7376,0,0,1,2.6474-1.44,5.09,5.09,0,0,0,1.4365-.6592,9.5329,9.5329,0,0,1,2.2315-1.1718c.2451-7.03.47-14.41.6855-22.4991a9.0734,9.0734,0,0,0-2.4531-1.28,7.51,7.51,0,0,1-2.4316-1.751,5.6287,5.6287,0,0,0-1.3516-1.0791,8.4375,8.4375,0,0,1-3.2227-3.1485q-2.3921-.1479-4.78-.3271A6.181,6.181,0,0,1,19.6621,41.72c-.0381.003-.1367.0059-.2354.0059-3.0693,0-5.1914-2.5371-5.9326-5.0508-1.2168-3.8037-.0136-8.98,4.07-10.6553a4.8674,4.8674,0,0,1,1.8448-.3662,6.3249,6.3249,0,0,1,4.8613,2.6944s.875-.045,1.1572-.0606a7.5707,7.5707,0,0,1,.835-4.59,17.0216,17.0216,0,0,0,1.3808-2.9922l.0948-.2461A6.7106,6.7106,0,0,1,29.96,17.7432a5.3517,5.3517,0,0,0,1.2509-1.28,7.1628,7.1628,0,0,1,2.1709-2.1787,13.5873,13.5873,0,0,1,5.2061-9.9873,13.2724,13.2724,0,0,1,8.2715-2.7715,14.5314,14.5314,0,0,1,3.0088.3144,13.3436,13.3436,0,0,1,9.5224,17.669,13.6347,13.6347,0,0,1-5.1533,6.457c0,.5537.0059,1.1192.0264,1.6885q2.2939.1128,4.5879.2344c2.7812.1455,5.5625.29,8.3476.4023a6.0359,6.0359,0,0,1,4.665-2.6377,4.6674,4.6674,0,0,1,1.6983.3223,7.0191,7.0191,0,0,1,4.0107,3.7851,9.775,9.775,0,0,1,.28,7.3125c-.748,2.27-2.9736,4.7715-6.043,4.7715a5.4515,5.4515,0,0,1-.9492-.0849,6.066,6.066,0,0,1-3.792-2.6739c-.0244-.03-.0488-.0595-.0732-.09-2.4678.1309-4.9678.3164-7.3926.4961-1.6816.125-3.3633.25-5.0459.3584.0156.8535.0488,1.6953.085,2.4883A7.4094,7.4094,0,0,1,57.541,45.03a6.0045,6.0045,0,0,0,1.2334,1.4062,6.9913,6.9913,0,0,1,2.1182,2.8692A9.067,9.067,0,0,0,61.8613,51.2a7.42,7.42,0,0,1,1.4922,4.6279,10.425,10.425,0,0,0,.1455,1.9287,8.0472,8.0472,0,0,1-.3154,4.5459l-.044.0909a10.3,10.3,0,0,0-.6845,1.9335,8.05,8.05,0,0,1-2.1787,4.1338A14.4327,14.4327,0,0,0,58.6279,70.1a11.1775,11.1775,0,0,1-3.2646,2.7647,9.2054,9.2054,0,0,0,1.331,5.1162,5.2119,5.2119,0,0,0,4.3887,1.9228c.1611,0,.3223-.0058.48-.0156a15.6723,15.6723,0,0,0,7.6943-2.7148c-.3477-.35-.6953-.7149-1.0264-1.1075a3.7121,3.7121,0,0,1-.832-3.0976,3.6242,3.6242,0,0,1,1.834-2.6221c2.4043-1.4941,4.9111-3.0019,7.418-4.51,2.1777-1.31,4.3564-2.62,6.5214-3.9531l.2969-.1748a5.3534,5.3534,0,0,1,2.68-.9531,2.9677,2.9677,0,0,1,1.6465.49c1.541.98,1.3838,2.7412,1.2988,3.6875l-.02.2227c-.2871,2.5351-.5527,5.02-.8184,7.5058-.3242,3.0342-.6494,6.0674-1.0029,9.0987a3.8207,3.8207,0,0,1-3.752,3.4648h0a3.4471,3.4471,0,0,1-1.0878-.1748,26.667,26.667,0,0,1-2.5684-.8516c-.0391-.0146-.0772-.0283-.1162-.0429-4.8311,5.9863-11.2949,11.1894-19.7227,15.8818l-.6679.3867c-2.6651,1.543-5.42,3.1377-8.2872,4.4756l-.1865.083a10.7127,10.7127,0,0,1-4.0273,1.1563c-.0918.0039-.1973.0058-.3037.0058a12.2877,12.2877,0,0,1-5.7754-1.7627l-1.8194-1.0127c-1.4677-.8134-2.9726-1.6484-4.456-2.5263a19.5964,19.5964,0,0,1-2.0108,4.167,3.3234,3.3234,0,0,1-1.6582,1.3427l-.2246.1065-1.1943.6015Z"/><path class="a" d="M86.9773,62.5021c-1.01-.6579-2.14.153-3.018.6584-4.6573,2.8654-9.3734,5.6289-14.0178,8.5073a2.2935,2.2935,0,0,0-.5646,3.43c.6707.7935,1.4435,1.4941,2.1694,2.2329a17.4558,17.4558,0,0,1-9.887,4.054c-2.271.1443-4.8181-.5559-6.1684-2.509-1.4982-2.0122-1.5832-4.6186-1.6682-7.0215,2.4452-.6748,3.5956-3.0267,5.4549-4.5125,1.63-1.456,1.5667-3.8078,2.5347-5.646.8573-1.936-.0809-3.9906.0464-5.9942.1953-2.3009-1.74-3.8673-2.3858-5.9136-.5813-1.7108-2.3983-2.4665-3.23-4.0074a6.7284,6.7284,0,0,0-3.0566-2.5088c-.0808-1.6089-.1484-3.2222-.1359-4.8312,4.8736-.2843,9.7386-.7429,14.6164-.9806.9845,1.1123,1.8382,2.5981,3.46,2.8232,2.441.4372,4.5976-1.5411,5.3235-3.7359,1.2271-3.273.14-7.9086-3.43-9.1737-2.0758-.8065-4.0454.7344-5.0391,2.4494-5.0515-.1911-10.0906-.5009-15.1379-.7343-.1061-1.3117-.1107-2.6278-.102-3.9438a12.2891,12.2891,0,0,0,5.2426-6.1514A11.8455,11.8455,0,0,0,49.5564,3.3078,11.9665,11.9665,0,0,0,34.8511,15.1306a6.456,6.456,0,0,0-2.3392,2.08c-.8616,1.4985-2.7338,2.1311-3.3748,3.7908a19.7068,19.7068,0,0,1-1.5962,3.4811c-.9678,1.575-.5647,3.4641-.5518,5.2047-1.1589.0932-2.3222.1357-3.4811.2038-1.074-1.8042-3.2094-3.3665-5.3743-2.4835-3.3113,1.3583-4.2029,5.71-3.2009,8.8427.6113,2.0716,2.373,4.1007,4.7079,3.9691,1.8042-.0253,3.0267-1.5026,3.9649-2.8612q3.19.242,6.3847.4372a7.8011,7.8011,0,0,0,2.993,3.2434c1.422.6793,2.2117,2.199,3.689,2.789A8.6718,8.6718,0,0,1,40.09,45.8826q-.3184,12.0921-.7386,24.1933a10.0058,10.0058,0,0,0-2.7678,1.2776c-1.1888.9341-2.8614.9254-3.9652,1.9954a38.6786,38.6786,0,0,1-3.0862,2.4364c-1.4688,1.1591-1.6641,3.1246-2.4961,4.6866a20.1927,20.1927,0,0,1-5.37-3.086c.9042-.985,2.0886-1.7913,2.6278-3.0479A2.3974,2.3974,0,0,0,22.99,71.4725c-4.7632-2.887-9.5347-5.7567-14.2893-8.652a2.3069,2.3069,0,0,0-2.5471-.28c-.79.7342-.5052,1.8933-.467,2.8439q.8724,7.9093,1.715,15.8178a2.4086,2.4086,0,0,0,2.025,2.492c1.5878-.0129,3.0353-.8536,4.5424-1.2906A54.9078,54.9078,0,0,0,24.8706,92.9359c1.261.73.8449,2.3178.8194,3.511a5.0393,5.0393,0,0,0,1.0358,3.8882A46.8,46.8,0,0,1,29.914,105.12c.4627-.2334,1.0145-.3946,1.2777-.8917a23.5083,23.5083,0,0,0,2.4876-5.629c2.5387,1.5877,5.1792,2.9973,7.79,4.4615a10.5613,10.5613,0,0,0,5.3235,1.5795,9.8992,9.8992,0,0,0,3.6252-1.0994c3.0483-1.4224,5.9519-3.1333,8.86-4.8144,7.54-4.1982,14.6417-9.4749,19.944-16.348,1.2184.42,2.4153.9253,3.6635,1.2483a2.2713,2.2713,0,0,0,2.8738-1.9953c.6454-5.5275,1.1931-11.0632,1.8212-16.5943C87.648,64.1749,87.8392,63.05,86.9773,62.5021Z"/><path class="b" d="M41.6135,92.1188c1.4943-1.8,3.0736-3.54,4.7251-5.2,1.46,1.58,2.9757,3.1163,4.3173,4.8015-1.2015-.7089-2.339-1.5156-3.49-2.2967-1.872.8573-3.6806,1.8424-5.5528,2.6955"/><path class="b" d="M86.9773,62.5021c-1.01-.6579-2.14.153-3.018.6584-4.6573,2.8654-9.3734,5.6289-14.0178,8.5073a2.2935,2.2935,0,0,0-.5646,3.43c.6707.7935,1.4435,1.4941,2.1694,2.2329a17.4558,17.4558,0,0,1-9.887,4.054c-2.271.1443-4.8181-.5559-6.1684-2.509-1.4982-2.0122-1.5832-4.6186-1.6682-7.0215,2.4452-.6748,3.5956-3.0267,5.4549-4.5125,1.63-1.456,1.5667-3.8078,2.5347-5.646.8573-1.936-.0809-3.9906.0464-5.9942.1953-2.3009-1.74-3.8673-2.3858-5.9136-.5813-1.7108-2.3983-2.4665-3.23-4.0074a6.7284,6.7284,0,0,0-3.0566-2.5088c-.0808-1.6089-.1484-3.2222-.1359-4.8312,4.8736-.2843,9.7386-.7429,14.6164-.9806.9845,1.1123,1.8382,2.5981,3.46,2.8232,2.441.4372,4.5976-1.5411,5.3235-3.7359,1.2271-3.273.14-7.9086-3.43-9.1737-2.0758-.8065-4.0454.7344-5.0391,2.4494-5.0515-.1911-10.0906-.5009-15.1379-.7343-.1061-1.3117-.1107-2.6278-.102-3.9438a12.2891,12.2891,0,0,0,5.2426-6.1514A11.8455,11.8455,0,0,0,49.5564,3.3078,11.9665,11.9665,0,0,0,34.8511,15.1306a6.456,6.456,0,0,0-2.3392,2.08c-.8616,1.4985-2.7338,2.1311-3.3748,3.7908a19.7068,19.7068,0,0,1-1.5962,3.4811c-.9678,1.575-.5647,3.4641-.5518,5.2047-1.1589.0932-2.3222.1357-3.4811.2038-1.074-1.8042-3.2094-3.3665-5.3743-2.4835-3.3113,1.3583-4.2029,5.71-3.2009,8.8427.6113,2.0716,2.373,4.1007,4.7079,3.9691,1.8042-.0253,3.0267-1.5026,3.9649-2.8612q3.19.242,6.3847.4372a7.8011,7.8011,0,0,0,2.993,3.2434c1.422.6793,2.2117,2.199,3.689,2.789A8.6718,8.6718,0,0,1,40.09,45.8826q-.3184,12.0921-.7386,24.1933a10.0058,10.0058,0,0,0-2.7678,1.2776c-1.1888.9341-2.8614.9254-3.9652,1.9954a38.6786,38.6786,0,0,1-3.0862,2.4364c-1.4688,1.1591-1.6641,3.1246-2.4961,4.6866a20.1927,20.1927,0,0,1-5.37-3.086c.9042-.985,2.0886-1.7913,2.6278-3.0479A2.3974,2.3974,0,0,0,22.99,71.4725c-4.7632-2.887-9.5347-5.7567-14.2893-8.652a2.3069,2.3069,0,0,0-2.5471-.28c-.79.7342-.5052,1.8933-.467,2.8439q.8724,7.9093,1.715,15.8178a2.4086,2.4086,0,0,0,2.025,2.492c1.5878-.0129,3.0353-.8536,4.5424-1.2906A54.9078,54.9078,0,0,0,24.8706,92.9359c1.261.73.8449,2.3178.8194,3.511a5.0393,5.0393,0,0,0,1.0358,3.8882A46.8,46.8,0,0,1,29.914,105.12c.4627-.2334,1.0145-.3946,1.2777-.8917a23.5083,23.5083,0,0,0,2.4876-5.629c2.5387,1.5877,5.1792,2.9973,7.79,4.4615a10.5613,10.5613,0,0,0,5.3235,1.5795,9.8992,9.8992,0,0,0,3.6252-1.0994c3.0483-1.4224,5.9519-3.1333,8.86-4.8144,7.54-4.1982,14.6417-9.4749,19.944-16.348,1.2184.42,2.4153.9253,3.6635,1.2483a2.2713,2.2713,0,0,0,2.8738-1.9953c.6454-5.5275,1.1931-11.0632,1.8212-16.5943C87.648,64.1749,87.8392,63.05,86.9773,62.5021ZM53.8439,70.7972c-.0212-.5688-.0423-1.1335-.0593-1.698.8321.1061,1.6682.2039,2.5044.3059C55.4827,69.8848,54.6717,70.36,53.8439,70.7972Zm3.8248-3.3406a5.6658,5.6658,0,0,1-3.9562.48c-.0087-.8578-.0171-1.7151-.0171-2.5687a7.9027,7.9027,0,0,0,6.44-.9974A6.2908,6.2908,0,0,1,57.6687,67.4566Zm1.936-4.0329c-1.6218,1.3838-3.8845,1.15-5.85.93q-.102-.7133-.2035-1.4266c1.6425-.6492,3.4683-.8444,4.9711-1.8294A12.6843,12.6843,0,0,0,61.54,58.24C61.46,60.1,61.18,62.2008,59.6047,63.4237Zm-6.1215-7.769c.11.119.3308.3524.4415.4714a15.08,15.08,0,0,0,.3225,2.7975q-.2673.9807-.4966,1.9741A33.2919,33.2919,0,0,1,53.4832,55.6547Zm6.8047-3.0478c.6923,1.7021,1.2694,3.7356.2972,5.4507-1.2478,2.11-3.7315,3.0056-6.0195,3.4259.2164-2.7382,3.3539-3.222,4.4745-5.4A13.0341,13.0341,0,0,0,60.2879,52.6069ZM57.3843,48.281c1.155,1.3161,2.1823,3.0056,1.8423,4.8354-.3565,2.3008-2.1947,3.9607-4.1,5.09a4.6058,4.6058,0,0,1,.3307-2.7594A15.5182,15.5182,0,0,0,57.3843,48.281Zm-3.5616-3.8376a6.3357,6.3357,0,0,1,2.6661,4.504,10.9033,10.9033,0,0,1-1.902,5.8119c-.8279.1061-1.0655-1.3841-1.2056-2.042A25.108,25.108,0,0,0,53.8227,44.4434Zm-1.49,7.5437c-.9-.9467-1.9824-2.0335-1.7279-3.4727a22.9651,22.9651,0,0,0-.3607-6.6223A6.5051,6.5051,0,0,1,52.7105,44.63C53.6785,47.016,52.88,49.6012,52.3328,51.9871Zm-.6455-22.962a35.9953,35.9953,0,0,1-5.5314-.4671c.0892-2.7848-.2-5.8414,1.2779-8.3291.9382-1.5875,3.4982-.7343,4.1731.675C51.8021,23.6039,51.6239,26.3165,51.6873,29.0251ZM48.92,17.771l-.1782-1.3923a5.2314,5.2314,0,0,1,1.4261,2.4324,17.2154,17.2154,0,0,0-4.47-.4839A8.0791,8.0791,0,0,0,44.3306,14.01a6.7089,6.7089,0,0,1,3.9564,3.35l-.6367.0722C47.9645,17.5162,48.6012,17.6862,48.92,17.771Zm2.5132,1.5241c-.6878-1.1547-.9681-2.666-2.25-3.3494-1.5326-.811-2.7681-2.25-4.5424-2.5216-1.2905-.1657-2.5811-.2973-3.859-.552a6.67,6.67,0,0,1,5.6122-4.0116,6.282,6.282,0,0,1,6.5842,6.1171A6.9507,6.9507,0,0,1,51.4328,19.2951Zm-7.7052-4.2876a5.2067,5.2067,0,0,1,1.6429,3.2856c-.4329.0595-1.2905.1783-1.7235.2378a12.9462,12.9462,0,0,0-3.57-4.47A5.0932,5.0932,0,0,1,43.7276,15.0075Zm2.6661,15.1211q1.6557,1.8276,3.273,3.6934-1.6044,1.8914-3.2859,3.71a28.399,28.399,0,0,1-3.1455-3.7911C44.216,32.4763,45.3324,31.33,46.3937,30.1286ZM44.8867,41.48a13.624,13.624,0,0,1,1.3414,5.4211,7.5417,7.5417,0,0,1-2.0928-1.2821,16.7252,16.7252,0,0,1-2.2712-6.614C43.4262,38.9247,44.1947,40.33,44.8867,41.48Zm-.14-2.0206c1.69.5306,3.5615,1.1971,4.5208,2.7975,1.053,2.1437.31,4.5847.1189,6.8347-.7089-.6113-1.6047-1.1251-1.97-2.0378-.4289-1.3923-.3865-2.891-.8449-4.2791A17.1611,17.1611,0,0,0,44.7467,39.46Zm4.1091,1.1121A16.0047,16.0047,0,0,1,51.84,39.4172c.0721.8872.1443,1.77.2122,2.6574C51.0083,41.5313,49.9341,41.0473,48.8558,40.5718Zm21.315-2.1353c-.6538.0127-1.0655-.5986-1.575-.9126a9.6139,9.6139,0,0,0,4.054-1.5665C72.009,36.9252,71.4314,38.1818,70.1708,38.4365Zm3.3327-9.4158a5.9178,5.9178,0,0,1,1.1716,7.5266c-.0681-1.906-.17-3.9819-1.4137-5.54-.8578-1.2311-2.3772-1.6-3.7146-2.042C70.7992,28.4434,72.353,28.0444,73.5035,29.0207Zm-4.1946,1.9061a3.9574,3.9574,0,0,1,3.307,1.9019c-1.1289,1.0358-2.7424.7259-4.1345.866-5.8541.1953-11.704.7089-17.5581.73a4.5055,4.5055,0,0,1,2.2328-.6495c2.9206-.1444,5.8371-.3312,8.7623-.399-3.63-.5306-7.3188-.4755-10.97-.8235-.7723-.8745-1.5749-1.7194-2.3812-2.56C55.4785,30.3664,62.398,30.5745,69.3089,30.9268ZM49.7857,4.747c5.1957.9593,8.7407,6.9661,6.9663,11.9671-.79,2.0885-2.1694,4.2536-4.39,4.9965,1.4054-2.39,3.6594-4.6189,3.3708-7.6372C55.75,8.81,49.9979,5.01,45.0776,6.029a11.3751,11.3751,0,0,0-5.005,2.6362A9.6542,9.6542,0,0,1,49.7857,4.747Zm-6.5929,13.78-1.6811.6113a25.509,25.509,0,0,0-4.2154-3.9013C39.8773,14.1456,41.741,16.8328,43.1928,18.5267Zm-.8575,2.6574a56.7528,56.7528,0,0,0-.3141,7.4546l-.4077.0041C41.8428,26.1552,41.4821,23.5826,42.3353,21.1841Zm-6.113-5.0475a13.5152,13.5152,0,0,1,4.81,3.1032q-.7132.5605-1.4265,1.1166a10.7473,10.7473,0,0,0-6.3338-2.6915C34.0361,16.85,34.97,15.8267,36.2223,16.1366Zm-.1443,9.2079A11.9868,11.9868,0,0,0,38.23,23.0519a29.7774,29.7774,0,0,0,2.3051,1.8934c.0042,1.367.0042,2.734.0083,4.1009-1.8379.1105-3.6805.2377-5.5187.2292C34.8426,27.8576,35.7679,26.6732,36.078,25.3445ZM28.2031,28.91c1.3542-2.4324,4.22-3.2434,6.8178-3.4175C34.2821,28.4179,30.89,29.475,28.2031,28.91Zm5.4085-10.1078c2.1311-.3565,3.9479,1.0443,5.6035,2.1651-.5307.2674-.9807.9593-1.6386.8192a16.7752,16.7752,0,0,0-8.0785.1783C30.3682,20.42,31.7224,18.9129,33.6116,18.8026Zm-3.7359,4.2918c2.3222-1.197,5.056-1.0146,7.5352-.4881a10.2444,10.2444,0,0,1-2.0036,1.732c-1.3585.45-2.874.28-4.19.8916a23.57,23.57,0,0,0-3.6127,2.3771C27.7065,25.9,28.2667,23.969,29.8757,23.0944Zm-13.041,9.3945c.1357-1.4773.4882-3.239,2.0546-3.8376,1.3245-.7386,2.4494.5139,3.3706,1.3034a22.7036,22.7036,0,0,0-3.7952.42C17.6454,30.8122,17.327,31.7589,16.8347,32.4889Zm3.2178,5.3533a8.6924,8.6924,0,0,1-1.817-1.8A24.4622,24.4622,0,0,0,21.3217,37.6C21.0033,37.6638,20.3666,37.7827,20.0525,37.8422Zm-.3142-3.8631c.1273-1.1038.7387-2.28,1.9953-2.3094,7.3951-.4924,14.8071-.7132,22.2063-1.1334q-.8849,1.0059-1.7659,2.0165c-6.2956.4116-12.6463.1569-18.9123.9253,6.0452-.14,12.0861.2589,18.1311.382l-.0042.7344C34.1719,34.4121,26.9509,34.306,19.7383,33.9791Zm13.86,6.24a20.5471,20.5471,0,0,1-1.7659-1.6173c.6536-.0425,1.3074-.0679,1.9612-.0849C33.7388,39.086,33.6709,39.6506,33.5987,40.2194Zm1.5368.87a6.2241,6.2241,0,0,1-.3863-2.4835q1.3437.0892,2.6871.1613a43.2077,43.2077,0,0,0,.2252,4.3852A6.8461,6.8461,0,0,1,35.1355,41.09ZM39.02,43.208a21.4107,21.4107,0,0,1-.6453-4.347c.7643.0467,1.5283.0933,2.2924.1443a41.5083,41.5083,0,0,0,1.8382,6.4569C41.223,44.9784,39.665,44.55,39.02,43.208Zm2.008,31.9873c.0806-6.0705.1189-12.141.2589-18.2073a87.3373,87.3373,0,0,1,.2972-9.607,4.3408,4.3408,0,0,1,.4542,2.3773c-.0169,7.0808-.0594,14.1621.0976,21.2387a58.2031,58.2031,0,0,1-.2461,7.1488,5.3365,5.3365,0,0,1-2.3137,3.4554c-.2079.0978-1.49.6115-.9255.06C40.5692,80.1071,41.0022,77.5219,41.0278,75.1953ZM38.65,71.5106c.6708.3649.7388,1.21,1.0487,1.83-.9807-.3905-1.9613-.7851-2.9335-1.2014A4.9581,4.9581,0,0,1,38.65,71.5106Zm-2.9077,1.3839a6.9151,6.9151,0,0,1,3.8417,1.8593A14.7983,14.7983,0,0,1,39.3,77.2711c-2.4239-.6832-4.4658-2.305-6.9663-2.7847C33.3609,73.7688,34.4138,72.8646,35.7427,72.8945ZM32.38,75.3226a21.9336,21.9336,0,0,1,6.3466,3.0823c-1.7532,1.0613-3.7019.42-5.5442.0552-1.69-.3993-3.3495.2164-4.9582.6579C29.0437,77.424,30.3045,75.45,32.38,75.3226Zm-3.9268,4.9031a9.2317,9.2317,0,0,1,7.62.0386c-2.8866,1.6765-6.3253,1.9443-9.2629,3.5316C27.1079,82.5353,27.2565,80.9856,28.4535,80.2257Zm-12.2641-.6832a31.7446,31.7446,0,0,1-6.41,1.7872c-1.0909-3.5064-1.1547-7.2425-1.8423-10.8422.6579,2.5173.989,5.1071,1.6173,7.6285a2.2914,2.2914,0,0,0,2.42,1.6811A13.3879,13.3879,0,0,0,16.962,78.116c1.8678-.8831,3.0522-2.6574,4.1645-4.3173-2.8273.3271-5.748,1.9232-8.5669.8108-1.8763-1.29-2.7338-3.5445-3.7271-5.51a13.64,13.64,0,0,1-1.6641-5.5909,4.0714,4.0714,0,0,1,1.9443.59q5.5845,3.5657,11.1859,7.1107a17.4635,17.4635,0,0,1,2.7593,1.9144c-.1316.7342-.781,1.2143-1.2267,1.7661C20.12,76.6173,18.5369,78.66,16.1894,79.5425Zm9.4115,6.8221c-2.3093-1.6645-4.5424-3.443-6.7031-5.294.348-.4158.7-.8362,1.0443-1.2607a34.0747,34.0747,0,0,0,6.2827,4.054C26.0551,84.7047,25.83,85.5367,25.6009,86.3646Zm4.5254,17.2605c-.7388-1.3329-1.8637-2.6022-2.0123-4.1685.3227-1.2354,1.49-1.9912,2.492-2.6661.6367-.42,1.6895-.6115,2.182.1232A15.3336,15.3336,0,0,1,30.1263,103.6251Zm1.7149-9.7979c-1.473,1.7747-3.5361,2.9463-4.95,4.7845-.2674-1.3075-.7854-2.8866.2208-4.0159a21.8538,21.8538,0,0,1,5.88-4.1983A5.7863,5.7863,0,0,1,31.8412,93.8272Zm-.2929-4.139c-1.6428,1.4476-3.5489,2.5687-5.179,4.0329-.2-1.3669-.5307-3.2009.849-4.0835,1.9613-1.3245,4.0414-2.4749,6.1257-3.6042A6.1283,6.1283,0,0,1,31.5483,89.6882Zm.866-4.6312c-1.9655,1.4643-4.1432,2.6147-6.096,4.1-.0425-1.5832-.0806-3.6,1.3712-4.61A25.4914,25.4914,0,0,1,34.04,82.6584,5.7527,5.7527,0,0,1,32.4143,85.057Zm5.6462,7.815c-1.1038-.4456-2.22-.8743-3.3325-1.3071a23.3384,23.3384,0,0,1-.14-4.2878,12.2539,12.2539,0,0,0,4.5679.4456,12.076,12.076,0,0,0,3.9776-1.9866c-1.3839,1.6682-2.7805,3.3281-4.1391,5.0179A5.5675,5.5675,0,0,0,38.0605,92.872Zm8.312,6.1091c-2.2881-2.0334-4.5254-4.1349-6.6438-6.3424,2.14-2.7594,4.3387-5.4848,6.6521-8.1,2.3647,2.5728,4.5341,5.3235,6.6609,8.0915A84.1853,84.1853,0,0,1,46.3725,98.9811Zm8.2951-7.1874c-1.7917-2.6192-4.4151-4.5676-6.092-7.259A12.1422,12.1422,0,0,1,47.43,78.6383c.0381-9.1868-.0425-18.369.0425-27.5513,1.6218.8279,2.3431,2.5515,3.5321,3.8294a5.0468,5.0468,0,0,1,1.1077,3.3111c.0257,2.9758-.0763,5.9561.085,8.9278.1571,4.2957-.4158,8.715.866,12.888.5265,1.7743,1.6728,3.5914,3.5574,4.1091,2.8232.6754,5.7182-.2416,8.2992-1.3668a24.5344,24.5344,0,0,0,7.4548-4.7716c.6451,1.1674,1.2859,2.3394,1.9953,3.4728C69.0543,86.8612,61.9694,90.1255,54.6676,91.7937Zm30.2468-23.828a37.1094,37.1094,0,0,1-3.3028,6.4017,3.5339,3.5339,0,0,1-2.5048,1.8341c-2.5936-.1783-4.644-2.0417-7.14-2.5853A16.3581,16.3581,0,0,0,76.946,78.6a19.4019,19.4019,0,0,0,5.918,1.8887c.8573-2.8526,1.4306-5.7774,2.0545-8.69-.0762,2.4621-.5687,4.8819-.8743,7.3229-.1529.7048-.14,1.55-.7217,2.0716a8.5614,8.5614,0,0,1-2.8866-.51c-2.1355-.6662-4.4409-1.235-6.1-2.8356a37.0453,37.0453,0,0,1-3.9989-4.2493c4.3807-3.0649,8.8257-6.0411,13.2193-9.0932.7259-.4584,1.4348-1.1421,2.3688-.9129C86.1793,65.1388,85.4662,66.5736,84.9144,67.9657Z"/><path class="b" d="M8.3271,112.7822q-.3193-.6621-.6679-1.3789-.35-.7177-.6992-1.4345t-.6924-1.4346q-.3427-.7164-.6621-1.3789c.1386-.0244.3271-.0469.5644-.0674s.461-.0313.6738-.0313c.1719,0,.3623.0108.57.0313s.3906.043.5459.0674l1.5078,3.4082,1.4463-3.4082c.1875-.0323.3837-.0576.5888-.0733s.4121-.0254.625-.0254c.1387,0,.3184.0108.5391.0313s.4092.043.5644.0674l-2.7343,5.6269v3.126a6.5958,6.5958,0,0,1-1.0782.11,6.4838,6.4838,0,0,1-1.0918-.11Z"/><path class="b" d="M15.4131,116.0928a3.6811,3.6811,0,0,1-1.36-.2334,2.6255,2.6255,0,0,1-.9873-.668,2.86,2.86,0,0,1-.6006-1.042,4.232,4.232,0,0,1-.2021-1.3428,4.3918,4.3918,0,0,1,.2021-1.3671,2.9035,2.9035,0,0,1,.6006-1.06,2.6417,2.6417,0,0,1,.9873-.6807,4.0239,4.0239,0,0,1,2.7334,0,2.6417,2.6417,0,0,1,.9873.6807,2.9021,2.9021,0,0,1,.6006,1.06,4.3889,4.3889,0,0,1,.2022,1.3671,4.2291,4.2291,0,0,1-.2022,1.3428,2.8589,2.8589,0,0,1-.6006,1.042,2.6255,2.6255,0,0,1-.9873.668A3.714,3.714,0,0,1,15.4131,116.0928Zm0-1.68a.8868.8868,0,0,0,.8037-.417,2.24,2.24,0,0,0,.2627-1.1895,2.2694,2.2694,0,0,0-.2627-1.2011.8886.8886,0,0,0-.8037-.417.8721.8721,0,0,0-.7969.417,2.3118,2.3118,0,0,0-.2568,1.2011,2.2819,2.2819,0,0,0,.2568,1.1895A.87.87,0,0,0,15.4131,114.4131Z"/><path class="b" d="M19.6426,109.6074a4.1467,4.1467,0,0,1,.5332-.0859c.1758-.0166.3457-.0244.5088-.0244.1552,0,.3232.0078.5029.0244a3.7573,3.7573,0,0,1,.5273.0859v6.3135a4.7978,4.7978,0,0,1-.5761.0791c-.1719.0127-.3233.0186-.4541.0186-.1387,0-.294-.0059-.4659-.0186a4.8223,4.8223,0,0,1-.5761-.0791Zm2.2685,3.0274,1.4463-3.0274a3.89,3.89,0,0,1,.5391-.0742c.2129-.0156.4-.0244.5644-.0244.2119,0,.4268.0088.6436.0244a3.2019,3.2019,0,0,1,.5215.0742L24.1055,112.55l1.6914,3.3711a4.0616,4.0616,0,0,1-.5518.0732c-.2207.0166-.4121.0245-.5762.0245-.2119,0-.4228-.0079-.6308-.0245a2.9707,2.9707,0,0,1-.4971-.0732Z"/><path class="b" d="M29.083,116.0928a3.6823,3.6823,0,0,1-1.3613-.2334,2.6308,2.6308,0,0,1-.9864-.668,2.8587,2.8587,0,0,1-.6005-1.042,4.2007,4.2007,0,0,1-.2032-1.3428,4.3593,4.3593,0,0,1,.2032-1.3671,2.9019,2.9019,0,0,1,.6005-1.06,2.6471,2.6471,0,0,1,.9864-.6807,3.6,3.6,0,0,1,1.3613-.2392,3.6372,3.6372,0,0,1,1.373.2392,2.6391,2.6391,0,0,1,.9864.6807,2.9182,2.9182,0,0,1,.6015,1.06,4.3889,4.3889,0,0,1,.2022,1.3671,4.2291,4.2291,0,0,1-.2022,1.3428,2.8749,2.8749,0,0,1-.6015,1.042,2.6229,2.6229,0,0,1-.9864.668A3.7207,3.7207,0,0,1,29.083,116.0928Zm0-1.68a.884.884,0,0,0,.8027-.417,2.23,2.23,0,0,0,.2637-1.1895,2.2593,2.2593,0,0,0-.2637-1.2011.8858.8858,0,0,0-.8027-.417.8711.8711,0,0,0-.7969.417,2.3011,2.3011,0,0,0-.2578,1.2011,2.2714,2.2714,0,0,0,.2578,1.1895A.8693.8693,0,0,0,29.083,114.4131Z"/><path class="b" d="M34.6,113.7139l-2.3535-4.1065q.1347-.0249.4717-.05c.2246-.0156.4726-.0244.7422-.0244.2119,0,.4209.0088.625.0244a3.0538,3.0538,0,0,1,.4042.05l1.2022,2.4151,1.2012-2.4151a2.88,2.88,0,0,1,.374-.05c.1836-.0156.3818-.0244.5947-.0244.27,0,.5108.0088.7227.0244s.3642.0332.4541.05l-2.3662,4.1065v2.2187c-.2129.0332-.4043.0576-.5762.0742s-.3272.0245-.4658.0245-.294-.0088-.4658-.0245-.36-.041-.5645-.0742Z"/><path class="b" d="M42.74,111.8379a.6579.6579,0,0,0-.123-.3672.72.72,0,0,0-.2813-.2266,1.3609,1.3609,0,0,0-.3808-.11,2.9252,2.9252,0,0,0-.4287-.0313,4.1275,4.1275,0,0,0-.6866.0674,5.0044,5.0044,0,0,0-.8095.2149c-.0733-.1387-.1368-.2657-.1895-.38a1.89,1.89,0,0,1-.123-.35,2.5949,2.5949,0,0,1-.0606-.3682c-.0127-.126-.0185-.2715-.0185-.4346a7.8819,7.8819,0,0,1,1.1709-.2949,6.4685,6.4685,0,0,1,1.0478-.0976,4.0174,4.0174,0,0,1,1.1524.1533,2.3047,2.3047,0,0,1,.8769.4717,2.0994,2.0994,0,0,1,.5576.8154,3.2154,3.2154,0,0,1,.1963,1.1836v3.5918q-.4657.1347-1.1279.27a6.9911,6.9911,0,0,1-1.3975.1348,5.5231,5.5231,0,0,1-1.1709-.1162,2.6159,2.6159,0,0,1-.914-.3741,1.7749,1.7749,0,0,1-.5938-.6806,2.266,2.266,0,0,1-.2148-1.0362,1.7765,1.7765,0,0,1,.2568-.9921,1.9431,1.9431,0,0,1,.6621-.626,2.8086,2.8086,0,0,1,.8955-.3242,5.1528,5.1528,0,0,1,.9561-.0928Zm0,1.3H42.041a1.339,1.339,0,0,0-.7226.1836.5783.5783,0,0,0-.295.5156.612.612,0,0,0,.11.3858.72.72,0,0,0,.2763.2148,1.2551,1.2551,0,0,0,.3555.0977,2.6918,2.6918,0,0,0,.35.0244,2.8724,2.8724,0,0,0,.3184-.0244,2.508,2.508,0,0,0,.3066-.0489Z"/><path class="b" d="M45.9521,109.9141q.4293-.1481,1.0293-.2891a6.8375,6.8375,0,0,1,1.52-.1406,6.1094,6.1094,0,0,1,.9932.08,2.5988,2.5988,0,0,1,.9072.3242,4.3414,4.3414,0,0,1,.7481-.2813,3.5061,3.5061,0,0,1,.9678-.123,5.5153,5.5153,0,0,1,.9873.0918,2.2424,2.2424,0,0,1,.9189.3867,2.1466,2.1466,0,0,1,.6748.8457,3.4135,3.4135,0,0,1,.2637,1.459v3.665a5.027,5.027,0,0,1-.5762.08c-.1719.0127-.3232.0186-.4541.0186-.1387,0-.2939-.0059-.4658-.0186a5.0573,5.0573,0,0,1-.5762-.08v-3.4443a1.526,1.526,0,0,0-.2207-.9317.86.86,0,0,0-.7226-.2822,1.5577,1.5577,0,0,0-.3379.0371,1.8329,1.8329,0,0,0-.2266.0606,3.9724,3.9724,0,0,1,.11.9814v3.5791a5.027,5.027,0,0,1-.5762.08c-.1719.0127-.3233.0186-.4531.0186-.14,0-.295-.0059-.4659-.0186a4.9986,4.9986,0,0,1-.5761-.08v-3.4443a1.6,1.6,0,0,0-.209-.9317.8258.8258,0,0,0-.711-.2822,1.8007,1.8007,0,0,0-.288.0244.64.64,0,0,0-.1905.0489v4.5849a4.9986,4.9986,0,0,1-.5761.08c-.1709.0127-.3223.0186-.4532.0186-.14,0-.2939-.0059-.4658-.0186a5,5,0,0,1-.5762-.08Z"/><path class="b" d="M59.4746,111.8379a.6579.6579,0,0,0-.123-.3672.72.72,0,0,0-.2813-.2266,1.3606,1.3606,0,0,0-.3809-.11,2.9232,2.9232,0,0,0-.4287-.0313,4.1254,4.1254,0,0,0-.6865.0674,5.0082,5.0082,0,0,0-.81.2149c-.0732-.1387-.1367-.2657-.1894-.38a1.8906,1.8906,0,0,1-.1231-.35,2.6092,2.6092,0,0,1-.0605-.3682c-.0127-.126-.0186-.2715-.0186-.4346a7.885,7.885,0,0,1,1.1709-.2949,6.4687,6.4687,0,0,1,1.0479-.0976,4.0162,4.0162,0,0,1,1.1523.1533,2.3044,2.3044,0,0,1,.877.4717,2.1,2.1,0,0,1,.5576.8154,3.2154,3.2154,0,0,1,.1963,1.1836v3.5918q-.4659.1347-1.1279.27a6.9919,6.9919,0,0,1-1.3975.1348,5.5231,5.5231,0,0,1-1.1709-.1162,2.6157,2.6157,0,0,1-.9141-.3741,1.7754,1.7754,0,0,1-.5937-.6806,2.2647,2.2647,0,0,1-.2149-1.0362,1.7766,1.7766,0,0,1,.2569-.9921,1.9431,1.9431,0,0,1,.6621-.626,2.8086,2.8086,0,0,1,.8955-.3242,5.1528,5.1528,0,0,1,.9561-.0928Zm0,1.3h-.6992a1.3391,1.3391,0,0,0-.7227.1836.5782.5782,0,0,0-.2949.5156.612.612,0,0,0,.11.3858.72.72,0,0,0,.2763.2148,1.2542,1.2542,0,0,0,.3555.0977,2.6918,2.6918,0,0,0,.35.0244,2.8741,2.8741,0,0,0,.3184-.0244,2.5114,2.5114,0,0,0,.3066-.0489Z"/><path class="b" d="M65.4326,107.1553c.2207-.0323.4209-.0576.6006-.0733s.3389-.0254.4785-.0254c.1465,0,.3125.0088.4961.0254s.3818.041.5947.0733v6.8652h2.8321a4.7792,4.7792,0,0,1,.08.5332c.0118.1514.0176.2881.0176.4111,0,.1387-.0058.2842-.0176.4346a5.2793,5.2793,0,0,1-.08.5459h-5.002Z"/><path class="b" d="M74.6025,111.8379a.6579.6579,0,0,0-.123-.3672.72.72,0,0,0-.2813-.2266,1.3609,1.3609,0,0,0-.3808-.11,2.9252,2.9252,0,0,0-.4287-.0313,4.1275,4.1275,0,0,0-.6866.0674,5.0044,5.0044,0,0,0-.8095.2149c-.0733-.1387-.1367-.2657-.1895-.38a1.89,1.89,0,0,1-.123-.35,2.5949,2.5949,0,0,1-.0606-.3682c-.0127-.126-.0185-.2715-.0185-.4346a7.8819,7.8819,0,0,1,1.1709-.2949A6.4685,6.4685,0,0,1,73.72,109.46a4.0174,4.0174,0,0,1,1.1524.1533,2.3047,2.3047,0,0,1,.8769.4717,2.0994,2.0994,0,0,1,.5576.8154,3.2154,3.2154,0,0,1,.1963,1.1836v3.5918q-.4657.1347-1.1279.27a6.9911,6.9911,0,0,1-1.3975.1348,5.5231,5.5231,0,0,1-1.1709-.1162,2.6159,2.6159,0,0,1-.914-.3741,1.7749,1.7749,0,0,1-.5938-.6806,2.266,2.266,0,0,1-.2148-1.0362,1.7765,1.7765,0,0,1,.2568-.9921,1.9431,1.9431,0,0,1,.6621-.626,2.8086,2.8086,0,0,1,.8955-.3242,5.1528,5.1528,0,0,1,.9561-.0928Zm0,1.3h-.6992a1.339,1.339,0,0,0-.7226.1836.5783.5783,0,0,0-.295.5156.612.612,0,0,0,.11.3858.7191.7191,0,0,0,.2764.2148,1.2535,1.2535,0,0,0,.3554.0977,2.6918,2.6918,0,0,0,.35.0244,2.8724,2.8724,0,0,0,.3184-.0244,2.508,2.508,0,0,0,.3066-.0489Z"/><path class="b" d="M77.8144,109.6318c.1641-.0244.3516-.0468.5645-.0673s.4287-.0391.6494-.0557.4356-.0283.6436-.0361.3906-.0127.5459-.0127a4.7369,4.7369,0,0,1,2.292.4355,1.4525,1.4525,0,0,1,.7607,1.3545,1.409,1.409,0,0,1-.2148.791,1.9087,1.9087,0,0,1-.5821.5576,2.1527,2.1527,0,0,1,.8457.5274,1.3372,1.3372,0,0,1,.3311.9678,1.6068,1.6068,0,0,1-.834,1.5634,5.4816,5.4816,0,0,1-2.4639.4356q-.4292,0-1.122-.0313t-1.4161-.1289Zm2.6485,2.4024a.768.768,0,0,0,.625-.2022.6723.6723,0,0,0,.1592-.4228.5554.5554,0,0,0-.1651-.3858.8132.8132,0,0,0-.6074-.1777c-.09,0-.1934.002-.3125.0059s-.2187.01-.3.0185v1.1641Zm-.6006,2.5508q.0366,0,.1963.0117c.1055.0088.249.0127.4287.0127a1.2145,1.2145,0,0,0,.7353-.1719.57.57,0,0,0,.2208-.4785.7.7,0,0,0-.043-.2393.4521.4521,0,0,0-.1533-.2021.91.91,0,0,0-.3057-.1406,1.9419,1.9419,0,0,0-.5156-.0557h-.5635Z"/><path class="b" d="M84.79,113.8369q.2827-.0366.54-.0615c.1709-.0166.3388-.0244.5019-.0244s.3311.0078.503.0244.3515.0371.539.0615q.05.2813.0742.5391c.0157.1719.0244.3388.0244.5029s-.0087.3311-.0244.5029-.041.3506-.0742.5391q-.2812.0483-.539.0732c-.1719.0166-.3389.0245-.503.0245s-.331-.0079-.5019-.0245-.3516-.041-.54-.0732c-.0322-.1885-.0576-.3682-.0732-.5391s-.0244-.34-.0244-.5029.0078-.331.0244-.5029S84.7578,114.0244,84.79,113.8369Z"/><path class="c" d="M8.3271,112.7822q-.3193-.6621-.6679-1.3789-.35-.7177-.6992-1.4345t-.6924-1.4346q-.3427-.7164-.6621-1.3789c.1386-.0244.3271-.0469.5644-.0674s.461-.0313.6738-.0313c.1719,0,.3623.0108.57.0313s.3906.043.5459.0674l1.5078,3.4082,1.4463-3.4082c.1875-.0323.3837-.0576.5888-.0733s.4121-.0254.625-.0254c.1387,0,.3184.0108.5391.0313s.4092.043.5644.0674l-2.7343,5.6269v3.126a6.5958,6.5958,0,0,1-1.0782.11,6.4838,6.4838,0,0,1-1.0918-.11Z"/><path class="c" d="M15.4131,116.0928a3.6811,3.6811,0,0,1-1.36-.2334,2.6255,2.6255,0,0,1-.9873-.668,2.86,2.86,0,0,1-.6006-1.042,4.232,4.232,0,0,1-.2021-1.3428,4.3918,4.3918,0,0,1,.2021-1.3671,2.9035,2.9035,0,0,1,.6006-1.06,2.6417,2.6417,0,0,1,.9873-.6807,4.0239,4.0239,0,0,1,2.7334,0,2.6417,2.6417,0,0,1,.9873.6807,2.9021,2.9021,0,0,1,.6006,1.06,4.3889,4.3889,0,0,1,.2022,1.3671,4.2291,4.2291,0,0,1-.2022,1.3428,2.8589,2.8589,0,0,1-.6006,1.042,2.6255,2.6255,0,0,1-.9873.668A3.714,3.714,0,0,1,15.4131,116.0928Zm0-1.68a.8868.8868,0,0,0,.8037-.417,2.24,2.24,0,0,0,.2627-1.1895,2.2694,2.2694,0,0,0-.2627-1.2011.8886.8886,0,0,0-.8037-.417.8721.8721,0,0,0-.7969.417,2.3118,2.3118,0,0,0-.2568,1.2011,2.2819,2.2819,0,0,0,.2568,1.1895A.87.87,0,0,0,15.4131,114.4131Z"/><path class="c" d="M19.6426,109.6074a4.1467,4.1467,0,0,1,.5332-.0859c.1758-.0166.3457-.0244.5088-.0244.1552,0,.3232.0078.5029.0244a3.7573,3.7573,0,0,1,.5273.0859v6.3135a4.7978,4.7978,0,0,1-.5761.0791c-.1719.0127-.3233.0186-.4541.0186-.1387,0-.294-.0059-.4659-.0186a4.8223,4.8223,0,0,1-.5761-.0791Zm2.2685,3.0274,1.4463-3.0274a3.89,3.89,0,0,1,.5391-.0742c.2129-.0156.4-.0244.5644-.0244.2119,0,.4268.0088.6436.0244a3.2019,3.2019,0,0,1,.5215.0742L24.1055,112.55l1.6914,3.3711a4.0616,4.0616,0,0,1-.5518.0732c-.2207.0166-.4121.0245-.5762.0245-.2119,0-.4228-.0079-.6308-.0245a2.9707,2.9707,0,0,1-.4971-.0732Z"/><path class="c" d="M29.083,116.0928a3.6823,3.6823,0,0,1-1.3613-.2334,2.6308,2.6308,0,0,1-.9864-.668,2.8587,2.8587,0,0,1-.6005-1.042,4.2007,4.2007,0,0,1-.2032-1.3428,4.3593,4.3593,0,0,1,.2032-1.3671,2.9019,2.9019,0,0,1,.6005-1.06,2.6471,2.6471,0,0,1,.9864-.6807,3.6,3.6,0,0,1,1.3613-.2392,3.6372,3.6372,0,0,1,1.373.2392,2.6391,2.6391,0,0,1,.9864.6807,2.9182,2.9182,0,0,1,.6015,1.06,4.3889,4.3889,0,0,1,.2022,1.3671,4.2291,4.2291,0,0,1-.2022,1.3428,2.8749,2.8749,0,0,1-.6015,1.042,2.6229,2.6229,0,0,1-.9864.668A3.7207,3.7207,0,0,1,29.083,116.0928Zm0-1.68a.884.884,0,0,0,.8027-.417,2.23,2.23,0,0,0,.2637-1.1895,2.2593,2.2593,0,0,0-.2637-1.2011.8858.8858,0,0,0-.8027-.417.8711.8711,0,0,0-.7969.417,2.3011,2.3011,0,0,0-.2578,1.2011,2.2714,2.2714,0,0,0,.2578,1.1895A.8693.8693,0,0,0,29.083,114.4131Z"/><path class="c" d="M34.6,113.7139l-2.3535-4.1065q.1347-.0249.4717-.05c.2246-.0156.4726-.0244.7422-.0244.2119,0,.4209.0088.625.0244a3.0538,3.0538,0,0,1,.4042.05l1.2022,2.4151,1.2012-2.4151a2.88,2.88,0,0,1,.374-.05c.1836-.0156.3818-.0244.5947-.0244.27,0,.5108.0088.7227.0244s.3642.0332.4541.05l-2.3662,4.1065v2.2187c-.2129.0332-.4043.0576-.5762.0742s-.3272.0245-.4658.0245-.294-.0088-.4658-.0245-.36-.041-.5645-.0742Z"/><path class="c" d="M42.74,111.8379a.6579.6579,0,0,0-.123-.3672.72.72,0,0,0-.2813-.2266,1.3609,1.3609,0,0,0-.3808-.11,2.9252,2.9252,0,0,0-.4287-.0313,4.1275,4.1275,0,0,0-.6866.0674,5.0044,5.0044,0,0,0-.8095.2149c-.0733-.1387-.1368-.2657-.1895-.38a1.89,1.89,0,0,1-.123-.35,2.5949,2.5949,0,0,1-.0606-.3682c-.0127-.126-.0185-.2715-.0185-.4346a7.8819,7.8819,0,0,1,1.1709-.2949,6.4685,6.4685,0,0,1,1.0478-.0976,4.0174,4.0174,0,0,1,1.1524.1533,2.3047,2.3047,0,0,1,.8769.4717,2.0994,2.0994,0,0,1,.5576.8154,3.2154,3.2154,0,0,1,.1963,1.1836v3.5918q-.4657.1347-1.1279.27a6.9911,6.9911,0,0,1-1.3975.1348,5.5231,5.5231,0,0,1-1.1709-.1162,2.6159,2.6159,0,0,1-.914-.3741,1.7749,1.7749,0,0,1-.5938-.6806,2.266,2.266,0,0,1-.2148-1.0362,1.7765,1.7765,0,0,1,.2568-.9921,1.9431,1.9431,0,0,1,.6621-.626,2.8086,2.8086,0,0,1,.8955-.3242,5.1528,5.1528,0,0,1,.9561-.0928Zm0,1.3H42.041a1.339,1.339,0,0,0-.7226.1836.5783.5783,0,0,0-.295.5156.612.612,0,0,0,.11.3858.72.72,0,0,0,.2763.2148,1.2551,1.2551,0,0,0,.3555.0977,2.6918,2.6918,0,0,0,.35.0244,2.8724,2.8724,0,0,0,.3184-.0244,2.508,2.508,0,0,0,.3066-.0489Z"/><path class="c" d="M45.9521,109.9141q.4293-.1481,1.0293-.2891a6.8375,6.8375,0,0,1,1.52-.1406,6.1094,6.1094,0,0,1,.9932.08,2.5988,2.5988,0,0,1,.9072.3242,4.3414,4.3414,0,0,1,.7481-.2813,3.5061,3.5061,0,0,1,.9678-.123,5.5153,5.5153,0,0,1,.9873.0918,2.2424,2.2424,0,0,1,.9189.3867,2.1466,2.1466,0,0,1,.6748.8457,3.4135,3.4135,0,0,1,.2637,1.459v3.665a5.027,5.027,0,0,1-.5762.08c-.1719.0127-.3232.0186-.4541.0186-.1387,0-.2939-.0059-.4658-.0186a5.0573,5.0573,0,0,1-.5762-.08v-3.4443a1.526,1.526,0,0,0-.2207-.9317.86.86,0,0,0-.7226-.2822,1.5577,1.5577,0,0,0-.3379.0371,1.8329,1.8329,0,0,0-.2266.0606,3.9724,3.9724,0,0,1,.11.9814v3.5791a5.027,5.027,0,0,1-.5762.08c-.1719.0127-.3233.0186-.4531.0186-.14,0-.295-.0059-.4659-.0186a4.9986,4.9986,0,0,1-.5761-.08v-3.4443a1.6,1.6,0,0,0-.209-.9317.8258.8258,0,0,0-.711-.2822,1.8007,1.8007,0,0,0-.288.0244.64.64,0,0,0-.1905.0489v4.5849a4.9986,4.9986,0,0,1-.5761.08c-.1709.0127-.3223.0186-.4532.0186-.14,0-.2939-.0059-.4658-.0186a5,5,0,0,1-.5762-.08Z"/><path class="c" d="M59.4746,111.8379a.6579.6579,0,0,0-.123-.3672.72.72,0,0,0-.2813-.2266,1.3606,1.3606,0,0,0-.3809-.11,2.9232,2.9232,0,0,0-.4287-.0313,4.1254,4.1254,0,0,0-.6865.0674,5.0082,5.0082,0,0,0-.81.2149c-.0732-.1387-.1367-.2657-.1894-.38a1.8906,1.8906,0,0,1-.1231-.35,2.6092,2.6092,0,0,1-.0605-.3682c-.0127-.126-.0186-.2715-.0186-.4346a7.885,7.885,0,0,1,1.1709-.2949,6.4687,6.4687,0,0,1,1.0479-.0976,4.0162,4.0162,0,0,1,1.1523.1533,2.3044,2.3044,0,0,1,.877.4717,2.1,2.1,0,0,1,.5576.8154,3.2154,3.2154,0,0,1,.1963,1.1836v3.5918q-.4659.1347-1.1279.27a6.9919,6.9919,0,0,1-1.3975.1348,5.5231,5.5231,0,0,1-1.1709-.1162,2.6157,2.6157,0,0,1-.9141-.3741,1.7754,1.7754,0,0,1-.5937-.6806,2.2647,2.2647,0,0,1-.2149-1.0362,1.7766,1.7766,0,0,1,.2569-.9921,1.9431,1.9431,0,0,1,.6621-.626,2.8086,2.8086,0,0,1,.8955-.3242,5.1528,5.1528,0,0,1,.9561-.0928Zm0,1.3h-.6992a1.3391,1.3391,0,0,0-.7227.1836.5782.5782,0,0,0-.2949.5156.612.612,0,0,0,.11.3858.72.72,0,0,0,.2763.2148,1.2542,1.2542,0,0,0,.3555.0977,2.6918,2.6918,0,0,0,.35.0244,2.8741,2.8741,0,0,0,.3184-.0244,2.5114,2.5114,0,0,0,.3066-.0489Z"/><path class="c" d="M65.4326,107.1553c.2207-.0323.4209-.0576.6006-.0733s.3389-.0254.4785-.0254c.1465,0,.3125.0088.4961.0254s.3818.041.5947.0733v6.8652h2.8321a4.7792,4.7792,0,0,1,.08.5332c.0118.1514.0176.2881.0176.4111,0,.1387-.0058.2842-.0176.4346a5.2793,5.2793,0,0,1-.08.5459h-5.002Z"/><path class="c" d="M74.6025,111.8379a.6579.6579,0,0,0-.123-.3672.72.72,0,0,0-.2813-.2266,1.3609,1.3609,0,0,0-.3808-.11,2.9252,2.9252,0,0,0-.4287-.0313,4.1275,4.1275,0,0,0-.6866.0674,5.0044,5.0044,0,0,0-.8095.2149c-.0733-.1387-.1367-.2657-.1895-.38a1.89,1.89,0,0,1-.123-.35,2.5949,2.5949,0,0,1-.0606-.3682c-.0127-.126-.0185-.2715-.0185-.4346a7.8819,7.8819,0,0,1,1.1709-.2949A6.4685,6.4685,0,0,1,73.72,109.46a4.0174,4.0174,0,0,1,1.1524.1533,2.3047,2.3047,0,0,1,.8769.4717,2.0994,2.0994,0,0,1,.5576.8154,3.2154,3.2154,0,0,1,.1963,1.1836v3.5918q-.4657.1347-1.1279.27a6.9911,6.9911,0,0,1-1.3975.1348,5.5231,5.5231,0,0,1-1.1709-.1162,2.6159,2.6159,0,0,1-.914-.3741,1.7749,1.7749,0,0,1-.5938-.6806,2.266,2.266,0,0,1-.2148-1.0362,1.7765,1.7765,0,0,1,.2568-.9921,1.9431,1.9431,0,0,1,.6621-.626,2.8086,2.8086,0,0,1,.8955-.3242,5.1528,5.1528,0,0,1,.9561-.0928Zm0,1.3h-.6992a1.339,1.339,0,0,0-.7226.1836.5783.5783,0,0,0-.295.5156.612.612,0,0,0,.11.3858.7191.7191,0,0,0,.2764.2148,1.2535,1.2535,0,0,0,.3554.0977,2.6918,2.6918,0,0,0,.35.0244,2.8724,2.8724,0,0,0,.3184-.0244,2.508,2.508,0,0,0,.3066-.0489Z"/><path class="c" d="M77.8144,109.6318c.1641-.0244.3516-.0468.5645-.0673s.4287-.0391.6494-.0557.4356-.0283.6436-.0361.3906-.0127.5459-.0127a4.7369,4.7369,0,0,1,2.292.4355,1.4525,1.4525,0,0,1,.7607,1.3545,1.409,1.409,0,0,1-.2148.791,1.9087,1.9087,0,0,1-.5821.5576,2.1527,2.1527,0,0,1,.8457.5274,1.3372,1.3372,0,0,1,.3311.9678,1.6068,1.6068,0,0,1-.834,1.5634,5.4816,5.4816,0,0,1-2.4639.4356q-.4292,0-1.122-.0313t-1.4161-.1289Zm2.6485,2.4024a.768.768,0,0,0,.625-.2022.6723.6723,0,0,0,.1592-.4228.5554.5554,0,0,0-.1651-.3858.8132.8132,0,0,0-.6074-.1777c-.09,0-.1934.002-.3125.0059s-.2187.01-.3.0185v1.1641Zm-.6006,2.5508q.0366,0,.1963.0117c.1055.0088.249.0127.4287.0127a1.2145,1.2145,0,0,0,.7353-.1719.57.57,0,0,0,.2208-.4785.7.7,0,0,0-.043-.2393.4521.4521,0,0,0-.1533-.2021.91.91,0,0,0-.3057-.1406,1.9419,1.9419,0,0,0-.5156-.0557h-.5635Z"/><path class="c" d="M84.79,113.8369q.2827-.0366.54-.0615c.1709-.0166.3388-.0244.5019-.0244s.3311.0078.503.0244.3515.0371.539.0615q.05.2813.0742.5391c.0157.1719.0244.3388.0244.5029s-.0087.3311-.0244.5029-.041.3506-.0742.5391q-.2812.0483-.539.0732c-.1719.0166-.3389.0245-.503.0245s-.331-.0079-.5019-.0245-.3516-.041-.54-.0732c-.0322-.1885-.0576-.3682-.0732-.5391s-.0244-.34-.0244-.5029.0078-.331.0244-.5029S84.7578,114.0244,84.79,113.8369Z"/><path class="b" d="M8.3271,112.7822q-.3193-.6621-.6679-1.3789-.35-.7177-.6992-1.4345t-.6924-1.4346q-.3427-.7164-.6621-1.3789c.1386-.0244.3271-.0469.5644-.0674s.461-.0313.6738-.0313c.1719,0,.3623.0108.57.0313s.3906.043.5459.0674l1.5078,3.4082,1.4463-3.4082c.1875-.0323.3837-.0576.5888-.0733s.4121-.0254.625-.0254c.1387,0,.3184.0108.5391.0313s.4092.043.5644.0674l-2.7343,5.6269v3.126a6.5958,6.5958,0,0,1-1.0782.11,6.4838,6.4838,0,0,1-1.0918-.11Z"/><path class="b" d="M15.4131,116.0928a3.6811,3.6811,0,0,1-1.36-.2334,2.6255,2.6255,0,0,1-.9873-.668,2.86,2.86,0,0,1-.6006-1.042,4.232,4.232,0,0,1-.2021-1.3428,4.3918,4.3918,0,0,1,.2021-1.3671,2.9035,2.9035,0,0,1,.6006-1.06,2.6417,2.6417,0,0,1,.9873-.6807,4.0239,4.0239,0,0,1,2.7334,0,2.6417,2.6417,0,0,1,.9873.6807,2.9021,2.9021,0,0,1,.6006,1.06,4.3889,4.3889,0,0,1,.2022,1.3671,4.2291,4.2291,0,0,1-.2022,1.3428,2.8589,2.8589,0,0,1-.6006,1.042,2.6255,2.6255,0,0,1-.9873.668A3.714,3.714,0,0,1,15.4131,116.0928Zm0-1.68a.8868.8868,0,0,0,.8037-.417,2.24,2.24,0,0,0,.2627-1.1895,2.2694,2.2694,0,0,0-.2627-1.2011.8886.8886,0,0,0-.8037-.417.8721.8721,0,0,0-.7969.417,2.3118,2.3118,0,0,0-.2568,1.2011,2.2819,2.2819,0,0,0,.2568,1.1895A.87.87,0,0,0,15.4131,114.4131Z"/><path class="b" d="M19.6426,109.6074a4.1467,4.1467,0,0,1,.5332-.0859c.1758-.0166.3457-.0244.5088-.0244.1552,0,.3232.0078.5029.0244a3.7573,3.7573,0,0,1,.5273.0859v6.3135a4.7978,4.7978,0,0,1-.5761.0791c-.1719.0127-.3233.0186-.4541.0186-.1387,0-.294-.0059-.4659-.0186a4.8223,4.8223,0,0,1-.5761-.0791Zm2.2685,3.0274,1.4463-3.0274a3.89,3.89,0,0,1,.5391-.0742c.2129-.0156.4-.0244.5644-.0244.2119,0,.4268.0088.6436.0244a3.2019,3.2019,0,0,1,.5215.0742L24.1055,112.55l1.6914,3.3711a4.0616,4.0616,0,0,1-.5518.0732c-.2207.0166-.4121.0245-.5762.0245-.2119,0-.4228-.0079-.6308-.0245a2.9707,2.9707,0,0,1-.4971-.0732Z"/><path class="b" d="M29.083,116.0928a3.6823,3.6823,0,0,1-1.3613-.2334,2.6308,2.6308,0,0,1-.9864-.668,2.8587,2.8587,0,0,1-.6005-1.042,4.2007,4.2007,0,0,1-.2032-1.3428,4.3593,4.3593,0,0,1,.2032-1.3671,2.9019,2.9019,0,0,1,.6005-1.06,2.6471,2.6471,0,0,1,.9864-.6807,3.6,3.6,0,0,1,1.3613-.2392,3.6372,3.6372,0,0,1,1.373.2392,2.6391,2.6391,0,0,1,.9864.6807,2.9182,2.9182,0,0,1,.6015,1.06,4.3889,4.3889,0,0,1,.2022,1.3671,4.2291,4.2291,0,0,1-.2022,1.3428,2.8749,2.8749,0,0,1-.6015,1.042,2.6229,2.6229,0,0,1-.9864.668A3.7207,3.7207,0,0,1,29.083,116.0928Zm0-1.68a.884.884,0,0,0,.8027-.417,2.23,2.23,0,0,0,.2637-1.1895,2.2593,2.2593,0,0,0-.2637-1.2011.8858.8858,0,0,0-.8027-.417.8711.8711,0,0,0-.7969.417,2.3011,2.3011,0,0,0-.2578,1.2011,2.2714,2.2714,0,0,0,.2578,1.1895A.8693.8693,0,0,0,29.083,114.4131Z"/><path class="b" d="M34.6,113.7139l-2.3535-4.1065q.1347-.0249.4717-.05c.2246-.0156.4726-.0244.7422-.0244.2119,0,.4209.0088.625.0244a3.0538,3.0538,0,0,1,.4042.05l1.2022,2.4151,1.2012-2.4151a2.88,2.88,0,0,1,.374-.05c.1836-.0156.3818-.0244.5947-.0244.27,0,.5108.0088.7227.0244s.3642.0332.4541.05l-2.3662,4.1065v2.2187c-.2129.0332-.4043.0576-.5762.0742s-.3272.0245-.4658.0245-.294-.0088-.4658-.0245-.36-.041-.5645-.0742Z"/><path class="b" d="M42.74,111.8379a.6579.6579,0,0,0-.123-.3672.72.72,0,0,0-.2813-.2266,1.3609,1.3609,0,0,0-.3808-.11,2.9252,2.9252,0,0,0-.4287-.0313,4.1275,4.1275,0,0,0-.6866.0674,5.0044,5.0044,0,0,0-.8095.2149c-.0733-.1387-.1368-.2657-.1895-.38a1.89,1.89,0,0,1-.123-.35,2.5949,2.5949,0,0,1-.0606-.3682c-.0127-.126-.0185-.2715-.0185-.4346a7.8819,7.8819,0,0,1,1.1709-.2949,6.4685,6.4685,0,0,1,1.0478-.0976,4.0174,4.0174,0,0,1,1.1524.1533,2.3047,2.3047,0,0,1,.8769.4717,2.0994,2.0994,0,0,1,.5576.8154,3.2154,3.2154,0,0,1,.1963,1.1836v3.5918q-.4657.1347-1.1279.27a6.9911,6.9911,0,0,1-1.3975.1348,5.5231,5.5231,0,0,1-1.1709-.1162,2.6159,2.6159,0,0,1-.914-.3741,1.7749,1.7749,0,0,1-.5938-.6806,2.266,2.266,0,0,1-.2148-1.0362,1.7765,1.7765,0,0,1,.2568-.9921,1.9431,1.9431,0,0,1,.6621-.626,2.8086,2.8086,0,0,1,.8955-.3242,5.1528,5.1528,0,0,1,.9561-.0928Zm0,1.3H42.041a1.339,1.339,0,0,0-.7226.1836.5783.5783,0,0,0-.295.5156.612.612,0,0,0,.11.3858.72.72,0,0,0,.2763.2148,1.2551,1.2551,0,0,0,.3555.0977,2.6918,2.6918,0,0,0,.35.0244,2.8724,2.8724,0,0,0,.3184-.0244,2.508,2.508,0,0,0,.3066-.0489Z"/><path class="b" d="M45.9521,109.9141q.4293-.1481,1.0293-.2891a6.8375,6.8375,0,0,1,1.52-.1406,6.1094,6.1094,0,0,1,.9932.08,2.5988,2.5988,0,0,1,.9072.3242,4.3414,4.3414,0,0,1,.7481-.2813,3.5061,3.5061,0,0,1,.9678-.123,5.5153,5.5153,0,0,1,.9873.0918,2.2424,2.2424,0,0,1,.9189.3867,2.1466,2.1466,0,0,1,.6748.8457,3.4135,3.4135,0,0,1,.2637,1.459v3.665a5.027,5.027,0,0,1-.5762.08c-.1719.0127-.3232.0186-.4541.0186-.1387,0-.2939-.0059-.4658-.0186a5.0573,5.0573,0,0,1-.5762-.08v-3.4443a1.526,1.526,0,0,0-.2207-.9317.86.86,0,0,0-.7226-.2822,1.5577,1.5577,0,0,0-.3379.0371,1.8329,1.8329,0,0,0-.2266.0606,3.9724,3.9724,0,0,1,.11.9814v3.5791a5.027,5.027,0,0,1-.5762.08c-.1719.0127-.3233.0186-.4531.0186-.14,0-.295-.0059-.4659-.0186a4.9986,4.9986,0,0,1-.5761-.08v-3.4443a1.6,1.6,0,0,0-.209-.9317.8258.8258,0,0,0-.711-.2822,1.8007,1.8007,0,0,0-.288.0244.64.64,0,0,0-.1905.0489v4.5849a4.9986,4.9986,0,0,1-.5761.08c-.1709.0127-.3223.0186-.4532.0186-.14,0-.2939-.0059-.4658-.0186a5,5,0,0,1-.5762-.08Z"/><path class="b" d="M59.4746,111.8379a.6579.6579,0,0,0-.123-.3672.72.72,0,0,0-.2813-.2266,1.3606,1.3606,0,0,0-.3809-.11,2.9232,2.9232,0,0,0-.4287-.0313,4.1254,4.1254,0,0,0-.6865.0674,5.0082,5.0082,0,0,0-.81.2149c-.0732-.1387-.1367-.2657-.1894-.38a1.8906,1.8906,0,0,1-.1231-.35,2.6092,2.6092,0,0,1-.0605-.3682c-.0127-.126-.0186-.2715-.0186-.4346a7.885,7.885,0,0,1,1.1709-.2949,6.4687,6.4687,0,0,1,1.0479-.0976,4.0162,4.0162,0,0,1,1.1523.1533,2.3044,2.3044,0,0,1,.877.4717,2.1,2.1,0,0,1,.5576.8154,3.2154,3.2154,0,0,1,.1963,1.1836v3.5918q-.4659.1347-1.1279.27a6.9919,6.9919,0,0,1-1.3975.1348,5.5231,5.5231,0,0,1-1.1709-.1162,2.6157,2.6157,0,0,1-.9141-.3741,1.7754,1.7754,0,0,1-.5937-.6806,2.2647,2.2647,0,0,1-.2149-1.0362,1.7766,1.7766,0,0,1,.2569-.9921,1.9431,1.9431,0,0,1,.6621-.626,2.8086,2.8086,0,0,1,.8955-.3242,5.1528,5.1528,0,0,1,.9561-.0928Zm0,1.3h-.6992a1.3391,1.3391,0,0,0-.7227.1836.5782.5782,0,0,0-.2949.5156.612.612,0,0,0,.11.3858.72.72,0,0,0,.2763.2148,1.2542,1.2542,0,0,0,.3555.0977,2.6918,2.6918,0,0,0,.35.0244,2.8741,2.8741,0,0,0,.3184-.0244,2.5114,2.5114,0,0,0,.3066-.0489Z"/><path class="b" d="M65.4326,107.1553c.2207-.0323.4209-.0576.6006-.0733s.3389-.0254.4785-.0254c.1465,0,.3125.0088.4961.0254s.3818.041.5947.0733v6.8652h2.8321a4.7792,4.7792,0,0,1,.08.5332c.0118.1514.0176.2881.0176.4111,0,.1387-.0058.2842-.0176.4346a5.2793,5.2793,0,0,1-.08.5459h-5.002Z"/><path class="b" d="M74.6025,111.8379a.6579.6579,0,0,0-.123-.3672.72.72,0,0,0-.2813-.2266,1.3609,1.3609,0,0,0-.3808-.11,2.9252,2.9252,0,0,0-.4287-.0313,4.1275,4.1275,0,0,0-.6866.0674,5.0044,5.0044,0,0,0-.8095.2149c-.0733-.1387-.1367-.2657-.1895-.38a1.89,1.89,0,0,1-.123-.35,2.5949,2.5949,0,0,1-.0606-.3682c-.0127-.126-.0185-.2715-.0185-.4346a7.8819,7.8819,0,0,1,1.1709-.2949A6.4685,6.4685,0,0,1,73.72,109.46a4.0174,4.0174,0,0,1,1.1524.1533,2.3047,2.3047,0,0,1,.8769.4717,2.0994,2.0994,0,0,1,.5576.8154,3.2154,3.2154,0,0,1,.1963,1.1836v3.5918q-.4657.1347-1.1279.27a6.9911,6.9911,0,0,1-1.3975.1348,5.5231,5.5231,0,0,1-1.1709-.1162,2.6159,2.6159,0,0,1-.914-.3741,1.7749,1.7749,0,0,1-.5938-.6806,2.266,2.266,0,0,1-.2148-1.0362,1.7765,1.7765,0,0,1,.2568-.9921,1.9431,1.9431,0,0,1,.6621-.626,2.8086,2.8086,0,0,1,.8955-.3242,5.1528,5.1528,0,0,1,.9561-.0928Zm0,1.3h-.6992a1.339,1.339,0,0,0-.7226.1836.5783.5783,0,0,0-.295.5156.612.612,0,0,0,.11.3858.7191.7191,0,0,0,.2764.2148,1.2535,1.2535,0,0,0,.3554.0977,2.6918,2.6918,0,0,0,.35.0244,2.8724,2.8724,0,0,0,.3184-.0244,2.508,2.508,0,0,0,.3066-.0489Z"/><path class="b" d="M77.8144,109.6318c.1641-.0244.3516-.0468.5645-.0673s.4287-.0391.6494-.0557.4356-.0283.6436-.0361.3906-.0127.5459-.0127a4.7369,4.7369,0,0,1,2.292.4355,1.4525,1.4525,0,0,1,.7607,1.3545,1.409,1.409,0,0,1-.2148.791,1.9087,1.9087,0,0,1-.5821.5576,2.1527,2.1527,0,0,1,.8457.5274,1.3372,1.3372,0,0,1,.3311.9678,1.6068,1.6068,0,0,1-.834,1.5634,5.4816,5.4816,0,0,1-2.4639.4356q-.4292,0-1.122-.0313t-1.4161-.1289Zm2.6485,2.4024a.768.768,0,0,0,.625-.2022.6723.6723,0,0,0,.1592-.4228.5554.5554,0,0,0-.1651-.3858.8132.8132,0,0,0-.6074-.1777c-.09,0-.1934.002-.3125.0059s-.2187.01-.3.0185v1.1641Zm-.6006,2.5508q.0366,0,.1963.0117c.1055.0088.249.0127.4287.0127a1.2145,1.2145,0,0,0,.7353-.1719.57.57,0,0,0,.2208-.4785.7.7,0,0,0-.043-.2393.4521.4521,0,0,0-.1533-.2021.91.91,0,0,0-.3057-.1406,1.9419,1.9419,0,0,0-.5156-.0557h-.5635Z"/><path class="b" d="M84.79,113.8369q.2827-.0366.54-.0615c.1709-.0166.3388-.0244.5019-.0244s.3311.0078.503.0244.3515.0371.539.0615q.05.2813.0742.5391c.0157.1719.0244.3388.0244.5029s-.0087.3311-.0244.5029-.041.3506-.0742.5391q-.2812.0483-.539.0732c-.1719.0166-.3389.0245-.503.0245s-.331-.0079-.5019-.0245-.3516-.041-.54-.0732c-.0322-.1885-.0576-.3682-.0732-.5391s-.0244-.34-.0244-.5029.0078-.331.0244-.5029S84.7578,114.0244,84.79,113.8369Z"/><path class="b" d="M36.31,127.1a.9823.9823,0,0,0,.3066.0371,1.1835,1.1835,0,0,0,.7422-.251,2.1082,2.1082,0,0,0,.5449-.6435,3.3784,3.3784,0,0,0,.3369-.8711,3.9442,3.9442,0,0,0,.1172-.9434,2.5825,2.5825,0,0,0-.8281-2.0351,3.5169,3.5169,0,0,0-2.4082-.7363,4.7467,4.7467,0,0,0-1.98.3984,4.4341,4.4341,0,0,0-1.4775,1.0674,4.7046,4.7046,0,0,0-.919,1.5263,5.0548,5.0548,0,0,0-.3193,1.7774,3.5784,3.5784,0,0,0,.2519,1.4033,2.6331,2.6331,0,0,0,1.6856,1.5508,3.9955,3.9955,0,0,0,1.2256.1846,7.391,7.391,0,0,0,1.1523-.086,5.0651,5.0651,0,0,0,1.0176-.2695,8.95,8.95,0,0,1,.4658,1.2988,4.4911,4.4911,0,0,1-1.2685.374,9.5531,9.5531,0,0,1-1.5635.1289,5.6519,5.6519,0,0,1-1.8018-.2822,4.165,4.165,0,0,1-1.4775-.8457,4.04,4.04,0,0,1-1.0049-1.416,4.9416,4.9416,0,0,1-.374-2.0039,6.3057,6.3057,0,0,1,.1719-1.4473,6.1863,6.1863,0,0,1,.5273-1.4277,6.4817,6.4817,0,0,1,.8887-1.3057,5.5661,5.5661,0,0,1,1.2558-1.0664,6.3843,6.3843,0,0,1,1.6436-.7178,7.4136,7.4136,0,0,1,2.0469-.2636,6.3375,6.3375,0,0,1,1.8574.2636,4.2276,4.2276,0,0,1,1.4961.7911,3.7663,3.7663,0,0,1,.999,1.3115,4.2644,4.2644,0,0,1,.3672,1.8271,4.642,4.642,0,0,1-.251,1.502,4.3178,4.3178,0,0,1-.7168,1.3232,3.72,3.72,0,0,1-1.122.9444,2.9827,2.9827,0,0,1-1.4649.3613,1.9029,1.9029,0,0,1-1.3369-.4287,5.6185,5.6185,0,0,1-.7227.3,3.0682,3.0682,0,0,1-.9687.1289,2.27,2.27,0,0,1-.7481-.1221,1.6779,1.6779,0,0,1-1.0478-1.0176,2.5514,2.5514,0,0,1-.1533-.9316,4.0645,4.0645,0,0,1,.2754-1.5146,3.7326,3.7326,0,0,1,.7539-1.1954,3.387,3.387,0,0,1,1.11-.7783,3.32,3.32,0,0,1,1.3418-.2754,6.4362,6.4362,0,0,1,1.0733.0918,6.3274,6.3274,0,0,1,1.0605.2754Zm-1.1885-2.8437c-.0664-.0079-.1231-.0147-.1719-.0186s-.1064-.0059-.1719-.0059a1.2361,1.2361,0,0,0-.6377.1651,1.5341,1.5341,0,0,0-.4775.4414,2.0909,2.0909,0,0,0-.3008.6377,2.6734,2.6734,0,0,0-.1045.7422.9615.9615,0,0,0,.1963.6738.6907.6907,0,0,0,.5274.208,3.1236,3.1236,0,0,0,.3437-.0176,1.5152,1.5152,0,0,0,.33-.08Z"/><path class="b" d="M42.4766,122.27H40.43a4.1941,4.1941,0,0,1,0-1.9121h6.2646c.0323.18.0567.3477.0733.502a4.1724,4.1724,0,0,1,.0244.4414,5.8621,5.8621,0,0,1-.0977.9687H44.6465v6.8653a6.6037,6.6037,0,0,1-1.0791.11,6.4806,6.4806,0,0,1-1.0908-.11Z"/><path class="b" d="M47.9687,120.3818q.2579-.0366.5577-.0673a5.491,5.491,0,0,1,.5586-.0313,5.0412,5.0412,0,0,1,.5332.0313q.2871.0307.5332.0673l1.74,4.5606,1.8027-4.5606c.1631-.0244.3291-.0468.4961-.0673a4.0744,4.0744,0,0,1,.4971-.0313,4.6279,4.6279,0,0,1,.5264.0313c.18.02.3564.0429.5273.0673l.417,8.753c-.1309.0244-.2754.05-.4356.0742a4.3456,4.3456,0,0,1-.6308.0361,5.5791,5.5791,0,0,1-1.0176-.11l-.1719-5.0752-1.3486,3.3467q-.22.0366-.4414.0615a3.604,3.604,0,0,1-.4043.0244c-.1221,0-.249-.0059-.38-.0186a2.8148,2.8148,0,0,1-.4043-.0673l-1.2021-3.2979-.1348,5.0264a4.6358,4.6358,0,0,1-.98.11,5.1978,5.1978,0,0,1-.9931-.11Z"/><path class="b" d="M57.4824,120.3818c.2363-.0322.4414-.0556.6123-.0673s.336-.0186.4912-.0186c.1387,0,.292.0059.459.0186s.37.0351.6074.0673v4.7569a9.2662,9.2662,0,0,0,.0489,1.042,2.2057,2.2057,0,0,0,.1777.6982.7951.7951,0,0,0,.3613.3867,1.3722,1.3722,0,0,0,.6133.1162,1.4106,1.4106,0,0,0,.6191-.1162.79.79,0,0,0,.3682-.3867,2.1168,2.1168,0,0,0,.1709-.6982c.0293-.2862.043-.6338.043-1.042v-4.7569c.2451-.0322.4521-.0556.6191-.0673s.3213-.0186.46-.0186c.1474,0,.3066.0059.4785.0186s.376.0351.6123.0673v5.0137a7.8767,7.8767,0,0,1-.1533,1.6309,3.0869,3.0869,0,0,1-.5332,1.2324,2.3966,2.3966,0,0,1-1.0352.7783,5.179,5.179,0,0,1-3.2978,0,2.3938,2.3938,0,0,1-1.0362-.7783,3.0869,3.0869,0,0,1-.5332-1.2324,7.8767,7.8767,0,0,1-.1533-1.6309Z"/><path class="c" d="M36.31,127.1a.9823.9823,0,0,0,.3066.0371,1.1835,1.1835,0,0,0,.7422-.251,2.1082,2.1082,0,0,0,.5449-.6435,3.3784,3.3784,0,0,0,.3369-.8711,3.9442,3.9442,0,0,0,.1172-.9434,2.5825,2.5825,0,0,0-.8281-2.0351,3.5169,3.5169,0,0,0-2.4082-.7363,4.7467,4.7467,0,0,0-1.98.3984,4.4341,4.4341,0,0,0-1.4775,1.0674,4.7046,4.7046,0,0,0-.919,1.5263,5.0548,5.0548,0,0,0-.3193,1.7774,3.5784,3.5784,0,0,0,.2519,1.4033,2.6331,2.6331,0,0,0,1.6856,1.5508,3.9955,3.9955,0,0,0,1.2256.1846,7.391,7.391,0,0,0,1.1523-.086,5.0651,5.0651,0,0,0,1.0176-.2695,8.95,8.95,0,0,1,.4658,1.2988,4.4911,4.4911,0,0,1-1.2685.374,9.5531,9.5531,0,0,1-1.5635.1289,5.6519,5.6519,0,0,1-1.8018-.2822,4.165,4.165,0,0,1-1.4775-.8457,4.04,4.04,0,0,1-1.0049-1.416,4.9416,4.9416,0,0,1-.374-2.0039,6.3057,6.3057,0,0,1,.1719-1.4473,6.1863,6.1863,0,0,1,.5273-1.4277,6.4817,6.4817,0,0,1,.8887-1.3057,5.5661,5.5661,0,0,1,1.2558-1.0664,6.3843,6.3843,0,0,1,1.6436-.7178,7.4136,7.4136,0,0,1,2.0469-.2636,6.3375,6.3375,0,0,1,1.8574.2636,4.2276,4.2276,0,0,1,1.4961.7911,3.7663,3.7663,0,0,1,.999,1.3115,4.2644,4.2644,0,0,1,.3672,1.8271,4.642,4.642,0,0,1-.251,1.502,4.3178,4.3178,0,0,1-.7168,1.3232,3.72,3.72,0,0,1-1.122.9444,2.9827,2.9827,0,0,1-1.4649.3613,1.9029,1.9029,0,0,1-1.3369-.4287,5.6185,5.6185,0,0,1-.7227.3,3.0682,3.0682,0,0,1-.9687.1289,2.27,2.27,0,0,1-.7481-.1221,1.6779,1.6779,0,0,1-1.0478-1.0176,2.5514,2.5514,0,0,1-.1533-.9316,4.0645,4.0645,0,0,1,.2754-1.5146,3.7326,3.7326,0,0,1,.7539-1.1954,3.387,3.387,0,0,1,1.11-.7783,3.32,3.32,0,0,1,1.3418-.2754,6.4362,6.4362,0,0,1,1.0733.0918,6.3274,6.3274,0,0,1,1.0605.2754Zm-1.1885-2.8437c-.0664-.0079-.1231-.0147-.1719-.0186s-.1064-.0059-.1719-.0059a1.2361,1.2361,0,0,0-.6377.1651,1.5341,1.5341,0,0,0-.4775.4414,2.0909,2.0909,0,0,0-.3008.6377,2.6734,2.6734,0,0,0-.1045.7422.9615.9615,0,0,0,.1963.6738.6907.6907,0,0,0,.5274.208,3.1236,3.1236,0,0,0,.3437-.0176,1.5152,1.5152,0,0,0,.33-.08Z"/><path class="c" d="M42.4766,122.27H40.43a4.1941,4.1941,0,0,1,0-1.9121h6.2646c.0323.18.0567.3477.0733.502a4.1724,4.1724,0,0,1,.0244.4414,5.8621,5.8621,0,0,1-.0977.9687H44.6465v6.8653a6.6037,6.6037,0,0,1-1.0791.11,6.4806,6.4806,0,0,1-1.0908-.11Z"/><path class="c" d="M47.9687,120.3818q.2579-.0366.5577-.0673a5.491,5.491,0,0,1,.5586-.0313,5.0412,5.0412,0,0,1,.5332.0313q.2871.0307.5332.0673l1.74,4.5606,1.8027-4.5606c.1631-.0244.3291-.0468.4961-.0673a4.0744,4.0744,0,0,1,.4971-.0313,4.6279,4.6279,0,0,1,.5264.0313c.18.02.3564.0429.5273.0673l.417,8.753c-.1309.0244-.2754.05-.4356.0742a4.3456,4.3456,0,0,1-.6308.0361,5.5791,5.5791,0,0,1-1.0176-.11l-.1719-5.0752-1.3486,3.3467q-.22.0366-.4414.0615a3.604,3.604,0,0,1-.4043.0244c-.1221,0-.249-.0059-.38-.0186a2.8148,2.8148,0,0,1-.4043-.0673l-1.2021-3.2979-.1348,5.0264a4.6358,4.6358,0,0,1-.98.11,5.1978,5.1978,0,0,1-.9931-.11Z"/><path class="c" d="M57.4824,120.3818c.2363-.0322.4414-.0556.6123-.0673s.336-.0186.4912-.0186c.1387,0,.292.0059.459.0186s.37.0351.6074.0673v4.7569a9.2662,9.2662,0,0,0,.0489,1.042,2.2057,2.2057,0,0,0,.1777.6982.7951.7951,0,0,0,.3613.3867,1.3722,1.3722,0,0,0,.6133.1162,1.4106,1.4106,0,0,0,.6191-.1162.79.79,0,0,0,.3682-.3867,2.1168,2.1168,0,0,0,.1709-.6982c.0293-.2862.043-.6338.043-1.042v-4.7569c.2451-.0322.4521-.0556.6191-.0673s.3213-.0186.46-.0186c.1474,0,.3066.0059.4785.0186s.376.0351.6123.0673v5.0137a7.8767,7.8767,0,0,1-.1533,1.6309,3.0869,3.0869,0,0,1-.5332,1.2324,2.3966,2.3966,0,0,1-1.0352.7783,5.179,5.179,0,0,1-3.2978,0,2.3938,2.3938,0,0,1-1.0362-.7783,3.0869,3.0869,0,0,1-.5332-1.2324,7.8767,7.8767,0,0,1-.1533-1.6309Z"/><path class="b" d="M36.31,127.1a.9823.9823,0,0,0,.3066.0371,1.1835,1.1835,0,0,0,.7422-.251,2.1082,2.1082,0,0,0,.5449-.6435,3.3784,3.3784,0,0,0,.3369-.8711,3.9442,3.9442,0,0,0,.1172-.9434,2.5825,2.5825,0,0,0-.8281-2.0351,3.5169,3.5169,0,0,0-2.4082-.7363,4.7467,4.7467,0,0,0-1.98.3984,4.4341,4.4341,0,0,0-1.4775,1.0674,4.7046,4.7046,0,0,0-.919,1.5263,5.0548,5.0548,0,0,0-.3193,1.7774,3.5784,3.5784,0,0,0,.2519,1.4033,2.6331,2.6331,0,0,0,1.6856,1.5508,3.9955,3.9955,0,0,0,1.2256.1846,7.391,7.391,0,0,0,1.1523-.086,5.0651,5.0651,0,0,0,1.0176-.2695,8.95,8.95,0,0,1,.4658,1.2988,4.4911,4.4911,0,0,1-1.2685.374,9.5531,9.5531,0,0,1-1.5635.1289,5.6519,5.6519,0,0,1-1.8018-.2822,4.165,4.165,0,0,1-1.4775-.8457,4.04,4.04,0,0,1-1.0049-1.416,4.9416,4.9416,0,0,1-.374-2.0039,6.3057,6.3057,0,0,1,.1719-1.4473,6.1863,6.1863,0,0,1,.5273-1.4277,6.4817,6.4817,0,0,1,.8887-1.3057,5.5661,5.5661,0,0,1,1.2558-1.0664,6.3843,6.3843,0,0,1,1.6436-.7178,7.4136,7.4136,0,0,1,2.0469-.2636,6.3375,6.3375,0,0,1,1.8574.2636,4.2276,4.2276,0,0,1,1.4961.7911,3.7663,3.7663,0,0,1,.999,1.3115,4.2644,4.2644,0,0,1,.3672,1.8271,4.642,4.642,0,0,1-.251,1.502,4.3178,4.3178,0,0,1-.7168,1.3232,3.72,3.72,0,0,1-1.122.9444,2.9827,2.9827,0,0,1-1.4649.3613,1.9029,1.9029,0,0,1-1.3369-.4287,5.6185,5.6185,0,0,1-.7227.3,3.0682,3.0682,0,0,1-.9687.1289,2.27,2.27,0,0,1-.7481-.1221,1.6779,1.6779,0,0,1-1.0478-1.0176,2.5514,2.5514,0,0,1-.1533-.9316,4.0645,4.0645,0,0,1,.2754-1.5146,3.7326,3.7326,0,0,1,.7539-1.1954,3.387,3.387,0,0,1,1.11-.7783,3.32,3.32,0,0,1,1.3418-.2754,6.4362,6.4362,0,0,1,1.0733.0918,6.3274,6.3274,0,0,1,1.0605.2754Zm-1.1885-2.8437c-.0664-.0079-.1231-.0147-.1719-.0186s-.1064-.0059-.1719-.0059a1.2361,1.2361,0,0,0-.6377.1651,1.5341,1.5341,0,0,0-.4775.4414,2.0909,2.0909,0,0,0-.3008.6377,2.6734,2.6734,0,0,0-.1045.7422.9615.9615,0,0,0,.1963.6738.6907.6907,0,0,0,.5274.208,3.1236,3.1236,0,0,0,.3437-.0176,1.5152,1.5152,0,0,0,.33-.08Z"/><path class="b" d="M42.4766,122.27H40.43a4.1941,4.1941,0,0,1,0-1.9121h6.2646c.0323.18.0567.3477.0733.502a4.1724,4.1724,0,0,1,.0244.4414,5.8621,5.8621,0,0,1-.0977.9687H44.6465v6.8653a6.6037,6.6037,0,0,1-1.0791.11,6.4806,6.4806,0,0,1-1.0908-.11Z"/><path class="b" d="M47.9687,120.3818q.2579-.0366.5577-.0673a5.491,5.491,0,0,1,.5586-.0313,5.0412,5.0412,0,0,1,.5332.0313q.2871.0307.5332.0673l1.74,4.5606,1.8027-4.5606c.1631-.0244.3291-.0468.4961-.0673a4.0744,4.0744,0,0,1,.4971-.0313,4.6279,4.6279,0,0,1,.5264.0313c.18.02.3564.0429.5273.0673l.417,8.753c-.1309.0244-.2754.05-.4356.0742a4.3456,4.3456,0,0,1-.6308.0361,5.5791,5.5791,0,0,1-1.0176-.11l-.1719-5.0752-1.3486,3.3467q-.22.0366-.4414.0615a3.604,3.604,0,0,1-.4043.0244c-.1221,0-.249-.0059-.38-.0186a2.8148,2.8148,0,0,1-.4043-.0673l-1.2021-3.2979-.1348,5.0264a4.6358,4.6358,0,0,1-.98.11,5.1978,5.1978,0,0,1-.9931-.11Z"/><path class="b" d="M57.4824,120.3818c.2363-.0322.4414-.0556.6123-.0673s.336-.0186.4912-.0186c.1387,0,.292.0059.459.0186s.37.0351.6074.0673v4.7569a9.2662,9.2662,0,0,0,.0489,1.042,2.2057,2.2057,0,0,0,.1777.6982.7951.7951,0,0,0,.3613.3867,1.3722,1.3722,0,0,0,.6133.1162,1.4106,1.4106,0,0,0,.6191-.1162.79.79,0,0,0,.3682-.3867,2.1168,2.1168,0,0,0,.1709-.6982c.0293-.2862.043-.6338.043-1.042v-4.7569c.2451-.0322.4521-.0556.6191-.0673s.3213-.0186.46-.0186c.1474,0,.3066.0059.4785.0186s.376.0351.6123.0673v5.0137a7.8767,7.8767,0,0,1-.1533,1.6309,3.0869,3.0869,0,0,1-.5332,1.2324,2.3966,2.3966,0,0,1-1.0352.7783,5.179,5.179,0,0,1-3.2978,0,2.3938,2.3938,0,0,1-1.0362-.7783,3.0869,3.0869,0,0,1-.5332-1.2324,7.8767,7.8767,0,0,1-.1533-1.6309Z"/></svg>